<svg xmlns="http://www.w3.org/2000/svg">
<title>YASHISMPTE</title>
<rect x="0" y="0" width="14.285714285714286%" height="66.666666666666667%" style="fill:#808080;"/>
<rect x="14.285714285714286%" y="0" width="14.285714285714286%" height="66.666666666666667%" style="fill:#C0C000;"/>
<rect x="28.571428571428572%" y="0" width="14.285714285714286%" height="66.666666666666667%" style="fill:#00C0C0;"/>
<rect x="42.857142857142858%" y="0" width="14.285714285714286%" height="66.666666666666667%" style="fill:#00C000;"/>
<rect x="57.142857142857144%" y="0" width="14.285714285714286%" height="66.666666666666667%" style="fill:#C000C0;"/>
<rect x="71.42857142857143%" y="0" width="14.285714285714286%" height="66.666666666666667%" style="fill:#C00000;"/>
<rect x="85.714285714285716%" y="0" width="14.285714285714286%" height="66.666666666666667%" style="fill:#0000C0;"/>

<rect x="0" y="66.666666666666667%" width="14.285714285714286%" height="8.333333333333333%" style="fill:#0000C0;"/>
<rect x="14.285714285714286%" y="66.666666666666667%" width="14.285714285714286%" height="8.333333333333333%" style="fill:#131313;"/>
<rect x="28.571428571428572%" y="66.666666666666667%" width="14.285714285714286%" height="8.333333333333333%" style="fill:#C000C0;"/>
<rect x="42.857142857142858%" y="66.666666666666667%" width="14.285714285714286%" height="8.333333333333333%" style="fill:#131313;"/>
<rect x="57.142857142857144%" y="66.666666666666667%" width="14.285714285714286%" height="8.333333333333333%" style="fill:#00C0C0;"/>
<rect x="71.42857142857143%" y="66.666666666666667%" width="14.285714285714286%" height="8.333333333333333%" style="fill:#131313;"/>
<rect x="85.714285714285716%" y="66.666666666666667%" width="14.285714285714286%" height="8.333333333333333%" style="fill:#BFBFBF;"/>

<rect x="0" y="75%" width="16.666666666666667%" height="25%" style="fill:#00214c;"/>
<rect x="16.666666666666667%" y="75%" width="16.666666666666667%" height="25%" style="fill:#FFF;"/>
<rect x="33.333333333333334%" y="75%" width="16.666666666666667%" height="25%" style="fill:#32006a;"/>
<rect x="50%" y="75%" width="16.666666666666667%" height="25%" style="fill:#131313;"/>

<rect x="66.666666666666667%" y="75%" width="5.555555555555556%" height="25%" style="fill:#090909;"/>
<rect x="72.222222222222223%" y="75%" width="5.555555555555556%" height="25%" style="fill:#131313;"/>
<rect x="77.777777777777778%" y="75%" width="5.555555555555556%" height="25%" style="fill:#1d1d1d;"/>

<rect x="83.333333333333334%" y="75%" width="16.666666666666667%" height="25%" style="fill:#131313;"/>
</svg>